<svg xmlns="http://www.w3.org/2000/svg" xmlns:xlink="http://www.w3.org/1999/xlink" viewBox="0 0 324.24 61.9"><defs><style>.a{fill:url(#a);}.b{fill:#161616;}</style><linearGradient id="a" x1="8.35" y1="62.05" x2="88.93" y2="13.17" gradientUnits="userSpaceOnUse"><stop offset="0" stop-color="#187de5"/><stop offset="1" stop-color="#0e3e9a"/></linearGradient></defs><title>XPEED</title><path class="a" d="M8.62,0h23.6Q48,10.47,49.47,11.67,66.84,0,68.24,0H102V.51Q76,16.62,66.47,23.09q9.38,4.13,32.72,25.11,11.41,12.38,11.42,13.7h-.25Q73.13,39.83,55.05,33,36.72,40.47,0,61.9v-.25Q6.27,49.85,22.83,32q.32,0,7.36-6.6L38.31,19,8.62.51Z"/><path class="b" d="M104,1h49.52q4.77,0,7.66,5a15.33,15.33,0,0,1,.34,2.78,15.82,15.82,0,0,1-2.89,8.34q-5,4.64-18.55,4.63H117.63q-.33,0-3.23,10A12.22,12.22,0,0,1,113,35.13H98.4L98.06,35Q103,19.76,106.74,6.6V5.49q0-1.91-2.72-4.27Zm16,13.34h24.85a30.33,30.33,0,0,0,1.19-4.45V9.38c0-.87-.39-1.3-1.19-1.3h-19.4c-2.35,0-3.83,1-4.42,3Z"/><path class="b" d="M163.5,1h50.89v.18q-6.85,6.86-12.94,6.86H184.6c-2.35,0-3.83,1-4.42,3l-1,3.34h26.55v.19q-7.67,7.21-12.6,7.22H176.94a16.57,16.57,0,0,0-1.36,4.27v.18a1.7,1.7,0,0,0,1.87,1.67h17.7q7.62,0,11.75,6.85v.37H173.54q-11.53,0-13.95-5l-.18-1.29q6-21.13,6.3-23.54a4.37,4.37,0,0,0-2.21-3.89Z"/><path class="b" d="M212.51,1H263.4v.18q-6.84,6.86-12.93,6.86H233.62c-2.36,0-3.83,1-4.43,3l-1,3.34h26.55v.19q-7.65,7.21-12.59,7.22H226a16.15,16.15,0,0,0-1.36,4.27v.18a1.7,1.7,0,0,0,1.87,1.67h17.7q7.62,0,11.74,6.85v.37H222.56q-11.53,0-14-5l-.17-1.29q6-21.13,6.29-23.54a4.35,4.35,0,0,0-2.21-3.89Z"/><path class="b" d="M264.68,1h54.63q4.94,0,4.93,4.63v.19q0,1.8-6.8,23.35-4.12,5.92-19.57,5.92H255.66V35q6.3-4.26,6.29-8.52,2.57-7.87,6-20.39,0-2.55-3.23-4.63Zm12.59,26.13h24.17q1.88,0,3.4-7.41.35-.61,3.24-10.94h-24q-1.87,0-2.72,5Q281.18,13.82,277.27,27.17Z"/></svg>